# AST/ASF file generated using VICON BodyLanguage
# -----------------------------------------------
:version 1.10
:name VICON
:units
  mass 1.0
  length 0.45
  angle deg
:documentation
   .ast/.asf automatically generated from VICON data using
   VICON BodyBuilder and BodyLanguage model FoxedUp or BRILLIANT.MOD
:root
   order TX TY TZ RX RY RZ
   axis XYZ
   position 0 0 0  
   orientation 0 0 0 
:bonedata
  begin
     id 1 
     name lhipjoint
     direction 0.570549 -0.739093 0.358072 
     length 2.41801 
     axis 0 0 0  XYZ
  end
  begin
     id 2 
     name lfemur
     direction 0.34202 -0.939693 0  
     length 7.44434  
     axis 0 0 20  XYZ
    dof rx ry rz
    limits (-160.0 20.0)
           (-70.0 70.0)
           (-60.0 70.0)
  end
  begin
     id 3 
     name ltibia
     direction 0.34202 -0.939693 0   
     length 7.60047   
     axis 0 0 20   XYZ
    dof rx
    limits (-10.0 170.0)
  end
  begin
     id 4 
     name lfoot
     direction 0.0909041 -0.249757 0.964032   
     length 2.03437   
     axis -90 7.62852e-016 20   XYZ
    dof rx rz
    limits (-45.0 90.0)
           (-70.0 20.0)
  end
  begin
     id 5 
     name ltoes
     direction 1.53547e-011 -4.2174e-011 1   
     length 1.02054   
     axis -90 7.62852e-016 20   XYZ
    dof rx
    limits (-90.0 20.0)
  end
  begin
     id 6 
     name rhipjoint
     direction -0.558096 -0.746754 0.361784   
     length 2.3932  
     axis 0 0 0  XYZ 
  end
  begin
     id 7 
     name rfemur
     direction -0.34202 -0.939693 0   
     length 7.3886   
     axis 0 0 -20   XYZ
    dof rx ry rz
    limits (-160.0 20.0)
           (-70.0 70.0)
           (-70.0 60.0)
  end
  begin
     id 8 
     name rtibia
     direction -0.34202 -0.939693 0   
     length 7.4839   
     axis 0 0 -20   XYZ
    dof rx
    limits (-10.0 170.0)
 end
 begin
     id 9 
     name rfoot
     direction -0.114619 -0.314914 0.942174   
     length 2.25127  
     axis -90 -7.62852e-016 -20   XYZ
    dof rx rz
    limits (-45.0 90.0)
           (-20.0 70.0)
  end
  begin
     id 10 
     name rtoes
     direction -1.53518e-011 -4.21881e-011 1   
     length 1.11821   
     axis -90 -7.62852e-016 -20   XYZ
    dof rx
    limits (-90.0 20.0)
  end
  begin
     id 11 
     name lowerback
     direction -0.00902269 0.996426 -0.0839821   
     length 2.25052   
     axis 0 0 0   XYZ
    dof rx ry rz
    limits (-20.0 45.0)
           (-30.0 30.0)
           (-30.0 30.0)
  end
  begin
     id 12 
     name upperback
     direction 0.0370973 0.999169 -0.0168941   
     length 2.24876   
     axis 0 0 0   XYZ
    dof rx ry rz
    limits (-20.0 45.0)
           (-30.0 30.0)
           (-30.0 30.0)
  end
  begin
     id 13 
     name thorax
     direction 0.0402726 0.998931 0.0227027   
     length 2.26408   
     axis 0 0 0   XYZ
    dof rx ry rz
    limits (-20.0 45.0)
           (-30.0 30.0)
           (-30.0 30.0)
  end
  begin
     id 14 
     name lowerneck
     direction -0.0733697 0.98508 0.155675   
     length 1.58204   
     axis 0 0 0   XYZ
    dof rx ry rz
    limits (-20.0 45.0)
           (-30.0 30.0)
           (-30.0 30.0)
  end
  begin
     id 15 
     name upperneck
     direction 0.0426554 0.993501 -0.105526   
     length 1.61222   
     axis 0 0 0   XYZ
    dof rx ry rz
    limits (-20.0 45.0)
           (-30.0 30.0)
           (-30.0 30.0)
  end
  begin
     id 16
     name head
     direction 0.020792 0.998384 -0.0528868  
     length 1.61527  
     axis 0 0 0   XYZ
    dof rx ry rz
    limits (-20.0 45.0)
           (-30.0 30.0)
           (-30.0 30.0)
  end
  begin
     id 17 
     name lclavicle
     direction 0.967109 0.155462 -0.201325  
     length 3.59357  
     axis 0 0 0   XYZ
    dof ry rz
    limits (-20.0 10.0)
           (0.0 20.0)
  end
  begin
     id 18 
     name lhumerus
     direction 1 -4.48968e-011 2.38195e-027   
     length 5.38154   
     axis 180 -30 -90   XYZ
    dof rx ry rz
    limits (-60.0 90.0)
           (-90.0 90.0)
           (-90.0 90.0)
  end
  begin
     id 19
     name lradius
     direction 1 -4.48961e-011 4.85371e-027   
     length 3.33312   
     axis 180 -30 -90   XYZ
    dof rx
    limits (-10.0 170.0)
  end
  begin
     id 20
     name lwrist
     direction 1 -4.48961e-011 4.76515e-027   
     length 1.66656   
     axis -3.27502e-015 90 90   XYZ
    dof ry
    limits (-180.0 0.0)
 end
  begin
     id 21 
     name lhand
     direction 1 -4.48951e-011 9.53074e-027   
     length 0.710789   
     axis -6.08098e-015 90 90   XYZ
    dof rx rz
    limits (-90.0 90.0)
           (-45.0 45.0)
  end
  begin
     id 22 
     name lfingers
     direction 1 -4.48953e-011 1.90613e-026   
     length 0.573057   
     axis -1.21619e-014 90 90   XYZ
    dof rx
    limits (0.0 90.0)
  end
  begin
     id 23
     name lthumb
     direction 0.707107 -6.34973e-011 0.707107   
     length 0.822798   
     axis -90 45 -9.86923e-015   XYZ
    dof rx rz
    limits (-45.0 45.0)
           (-45.0 45.0)
  end
  begin
     id 24 
     name rclavicle
     direction -0.9585 0.265289 -0.104398   
     length 3.42039  
     axis 0 0 0   XYZ 
    dof ry rz
    limits (-10.0 20.0)
           (-20.0 0.0)
  end
  begin
     id 25 
     name rhumerus
     direction -1 -4.48977e-011 2.21478e-027  
     length 5.16954   
     axis 180 30 90   XYZ
    dof rx ry rz
    limits (-90.0 60.0)
           (-90.0 90.0)
           (-90.0 90.0)
  end
  begin
     id 26 
     name rradius
     direction -1 -4.48967e-011 5.63677e-027   
     length 3.38287   
     axis 180 30 90   XYZ
    dof rx
    limits (-10.0 170.0)
  end
  begin
     id 27 
     name rwrist
     direction -1 -4.48967e-011 4.76501e-027   
     length 1.69144   
     axis -3.27502e-015 -90 -90   XYZ
    dof ry
    limits (-180.0 0.0)
  end
  begin
     id 28
     name rhand
     direction -1 -4.48902e-011 9.53292e-027   
     length 0.817967   
     axis -6.08098e-015 -90 -90   XYZ
    dof rx rz
    limits (-90.0 90.0)
           (-45.0 45.0)
  end
  begin
     id 29
     name rfingers
     direction -1 -4.49012e-011 1.90561e-026   
     length 0.659466   
     axis -1.21619e-014 -90 -90   XYZ
    dof rx
    limits (0.0 90.0)
  end
  begin
     id 30
     name rthumb
     direction -0.707107 -6.34944e-011 0.707107   
     length 0.946865   
     axis -90 -45 9.86923e-015   XYZ
    dof rx rz
    limits (-45.0 45.0)
           (-45.0 45.0)
  end
:hierarchy
  begin
    root lhipjoint rhipjoint lowerback
    lhipjoint lfemur
    lfemur ltibia
    ltibia lfoot
    lfoot ltoes
    rhipjoint rfemur
    rfemur rtibia
    rtibia rfoot
    rfoot rtoes
    lowerback upperback
    upperback thorax
    thorax lowerneck lclavicle rclavicle
    lowerneck upperneck
    upperneck head
    lclavicle lhumerus
    lhumerus lradius
    lradius lwrist
    lwrist lhand lthumb
    lhand lfingers
    rclavicle rhumerus
    rhumerus rradius
    rradius rwrist
    rwrist rhand rthumb
    rhand rfingers
  end

#!OML:ASF F:\twosubjects\two\wednesday\Session 1\Justin1.ASF
:FULLY-SPECIFIED
:DEGREES
1085
root 9.80589 14.2807 -16.6712 10.5164 -15.0353 4.06002
lowerback 28.4022 4.27317 0.384991
upperback 4.16012 5.21192 -2.63825
thorax -10.698 2.31428 -5.11196
lowerneck -22.1764 -4.17594 -8.69482
upperneck 9.67136 -3.88294 5.39959
head 6.79964 -1.72187 2.69198
rclavicle 6.52014e-014 -3.81667e-014
rhumerus 4.10703 -13.8945 -52.924
rradius 93.2653
rwrist -28.5761
rhand -22.1382 42.7648
rfingers 7.12502
rthumb 4.27535 12.828
lclavicle 6.52014e-014 -3.81667e-014
lhumerus -29.6473 10.4124 76.4787
lradius 116.233
lwrist 11.6942
lhand -10.0042 21.2786
lfingers 7.12502
lthumb 15.9796 50.6395
rfemur -62.5532 -1.9954 9.76386
rtibia 81.1372
rfoot -26.8291 -0.053937
rtoes -18.527
lfemur -58.1286 17.9408 -24.5292
ltibia 82.0422
lfoot -32.8626 -0.0819689
ltoes -10.3134
1086
root 9.83771 14.3285 -16.6722 10.6356 -16.1546 4.59892
lowerback 28.3229 4.67445 0.131808
upperback 4.03522 5.59022 -3.1215
thorax -10.7418 2.48644 -5.6544
lowerneck -21.8449 -4.5094 -8.97935
upperneck 9.40436 -4.3325 5.79407
head 6.70872 -1.9166 2.81343
rclavicle 3.97569e-016 -9.14409e-015
rhumerus 4.51199 -14.0444 -52.5225
rradius 92.8239
rwrist -28.5485
rhand -22.46 43.1584
rfingers 7.12502
rthumb 3.96459 13.2155
lclavicle 3.97569e-016 -9.14409e-015
lhumerus -30.5822 10.6496 76.8988
lradius 116.181
lwrist 11.1229
lhand -9.70277 21.1832
lfingers 7.12502
lthumb 16.2699 50.5206
rfemur -62.8664 -1.06171 8.85724
rtibia 80.6001
rfoot -26.4007 0.104259
rtoes -18.5109
lfemur -58.1236 18.3975 -25.3269
ltibia 81.566
lfoot -32.6352 -0.0612722
ltoes -9.58603
1087
root 9.86417 14.3633 -16.6729 10.9581 -16.9397 4.46689
lowerback 28.1645 4.88293 0.554046
upperback 4.00642 5.95003 -3.41741
thorax -10.5834 2.63815 -6.3442
lowerneck -21.9129 -4.78289 -9.14159
upperneck 9.13815 -4.67609 6.04065
head 6.66876 -2.06338 2.87643
rclavicle -1.15295e-014 -1.15295e-014
rhumerus 5.19809 -14.2566 -52.2623
rradius 92.4335
rwrist -28.9086
rhand -22.7552 43.4649
rfingers 7.12502
rthumb 3.67949 13.5169
lclavicle -1.15295e-014 -1.15295e-014
lhumerus -31.237 10.9179 77.1041
lradius 116.112
lwrist 10.5724
lhand -9.68051 20.8717
lfingers 7.12502
lthumb 16.2913 50.2073
rfemur -63.1744 -0.17124 8.72213
rtibia 80.0836
rfoot -26.029 -0.0336218
rtoes -18.5325
lfemur -58.2093 18.9164 -25.4847
ltibia 81.1015
lfoot -32.4599 0.642634
ltoes -12.5943
1088
root 9.89354 14.4038 -16.6648 11.2355 -17.3144 4.59065
lowerback 28.0414 4.88754 0.881034
upperback 3.83477 6.01983 -3.72456
thorax -10.6397 2.64933 -6.90759
lowerneck -21.5809 -4.98652 -9.4508
upperneck 8.75967 -4.94129 6.44865
head 6.53359 -2.17018 3.03005
rclavicle -8.98507e-014 3.10104e-014
rhumerus 5.70643 -14.1656 -52.0793
rradius 92.1095
rwrist -29.3699
rhand -22.6805 43.59
rfingers 7.12502
rthumb 3.75164 13.6432
lclavicle -8.98507e-014 3.10104e-014
lhumerus -32.5965 11.2104 76.6696
lradius 116.394
lwrist 10.4403
lhand -9.60955 20.3975
lfingers 7.12502
lthumb 16.3596 49.7276
rfemur -63.3354 0.156387 8.38051
rtibia 79.5932
rfoot -25.8015 -0.0534324
rtoes -18.7869
lfemur -58.1903 19.0183 -25.8798
ltibia 80.5568
lfoot -32.3153 1.67206
ltoes -16.1407
1089
root 9.91184 14.4547 -16.6547 11.3162 -17.6459 5.04697
lowerback 28.1131 4.88152 0.718496
upperback 3.53944 5.92359 -4.03303
thorax -11.0088 2.58401 -7.17167
lowerneck -21.2649 -5.10454 -9.62017
upperneck 8.72329 -5.10144 6.58048
head 6.49353 -2.24761 3.08353
rclavicle -2.70347e-014 9.54166e-015
rhumerus 5.99945 -13.6933 -51.9766
rradius 92.0304
rwrist -29.8743
rhand -22.5507 43.6478
rfingers 7.12502
rthumb 3.877 13.7033
lclavicle -2.70347e-014 9.54166e-015
lhumerus -34.028 11.6689 76.3665
lradius 116.522
lwrist 10.2403
lhand -9.29178 19.8172
lfingers 7.12502
lthumb 16.6656 49.1217
rfemur -63.3076 0.424491 7.70331
rtibia 79.0704
rfoot -25.5531 0.0224159
rtoes -18.6726
lfemur -58.0426 18.9933 -26.4638
ltibia 79.9882
lfoot -32.1496 1.86054
ltoes -16.3411
1090
root 9.91727 14.5066 -16.6478 11.3402 -17.8795 5.09619
lowerback 28.1663 4.91631 0.694127
upperback 3.44028 5.95335 -4.07728
thorax -11.1446 2.58962 -7.23482
lowerneck -21.4374 -5.22891 -9.41896
upperneck 8.7846 -5.22947 6.03415
head 6.52777 -2.34705 2.85285
rclavicle 6.48038e-014 -4.49253e-014
rhumerus 6.29003 -13.3251 -51.8176
rradius 92.3725
rwrist -30.3146
rhand -22.81 43.438
rfingers 7.12502
rthumb 3.6266 13.4891
lclavicle 6.48038e-014 -4.49253e-014
lhumerus -34.8103 12.0893 76.5021
lradius 116.456
lwrist 9.92468
lhand -9.10836 19.4347
lfingers 7.12502
lthumb 16.8421 48.7243
rfemur -63.0361 0.961495 7.45869
rtibia 78.493
rfoot -25.2813 0.0186853
rtoes -18.0485
lfemur -57.7947 19.1854 -26.5515
ltibia 79.4749
lfoot -31.9545 1.26865
ltoes -13.9883
1091
root 9.9204 14.5582 -16.645 11.3179 -17.9688 5.07507
lowerback 28.1671 4.98228 0.612693
upperback 3.51851 6.03317 -3.91645
thorax -11.0731 2.63734 -7.02371
lowerneck -21.8098 -5.52509 -9.6807
upperneck 8.77636 -5.47002 5.73576
head 6.59841 -2.49263 2.75978
rclavicle -7.51406e-014 6.59965e-014
rhumerus 6.57462 -13.0909 -51.5051
rradius 92.9543
rwrist -30.4788
rhand -21.4179 42.9822
rfingers 7.12502
rthumb 4.97089 13.0606
lclavicle -7.51406e-014 6.59965e-014
lhumerus -35.2 12.4039 76.6357
lradius 116.481
lwrist 9.94825
lhand -8.9975 19.7062
lfingers 7.12502
lthumb 16.9488 48.9867
rfemur -62.6647 1.4561 7.31221
rtibia 77.9135
rfoot -25.1159 -0.128524
rtoes -17.728
lfemur -57.4572 19.3785 -26.585
ltibia 78.9168
lfoot -31.7783 0.8727
ltoes -12.5314
1092
root 9.92365 14.6097 -16.6421 11.3923 -18.0584 5.10237
lowerback 28.1407 5.01181 0.420081
upperback 3.47329 6.02974 -3.78438
thorax -11.1486 2.64252 -6.76234
lowerneck -22.0838 -5.7351 -10.1281
upperneck 8.87232 -5.61668 5.87196
head 6.70061 -2.56369 2.85199
rclavicle 5.52621e-014 -5.24792e-014
rhumerus 6.65633 -12.6764 -51.371
rradius 93.5511
rwrist -30.3216
rhand -21.4569 43.2318
rfingers 7.12502
rthumb 4.93319 13.3092
lclavicle 5.52621e-014 -5.24792e-014
lhumerus -35.5772 12.772 76.5742
lradius 116.423
lwrist 10.0885
lhand -8.88956 20.1512
lfingers 7.12502
lthumb 17.0527 49.4228
rfemur -62.4247 1.7783 7.1575
rtibia 77.3506
rfoot -25.0003 -0.361669
rtoes -18.0205
lfemur -57.275 19.5691 -26.7316
ltibia 78.3402
lfoot -31.5736 0.66808
ltoes -12.4612
1093
root 9.92267 14.6524 -16.6343 11.5457 -18.0156 5.04112
lowerback 27.938 4.97988 0.205142
upperback 3.35211 5.95324 -3.60208
thorax -11.2369 2.61664 -6.39272
lowerneck -21.9848 -5.63768 -9.92391
upperneck 8.76202 -5.49551 5.49352
head 6.62103 -2.53235 2.71194
rclavicle -9.38264e-014 7.71285e-014
rhumerus 6.47058 -12.0814 -51.4536
rradius 94.2399
rwrist -29.7933
rhand -21.8569 43.8541
rfingers 7.12502
rthumb 4.5469 13.9229
lclavicle -9.38264e-014 7.71285e-014
lhumerus -35.9796 13.2512 76.7789
lradius 116.216
lwrist 9.90144
lhand -8.91891 20.2207
lfingers 7.12502
lthumb 17.0245 49.4947
rfemur -62.2129 1.8835 7.14093
rtibia 76.8472
rfoot -24.9095 -0.506671
rtoes -18.909
lfemur -57.1213 19.7523 -26.8449
ltibia 77.7499
lfoot -31.3749 0.970176
ltoes -14.8414
